REM MD5 d4034fad396fc4e5f1ad09b728ad622b
FILE "Hi-Octane (Europe) (En,Fr,De,Es).bin" BINARY
  TRACK 01 MODE2/2352
    INDEX 01 00:00:00
  TRACK 02 AUDIO
    INDEX 00 01:35:15
    INDEX 01 01:37:15
  TRACK 03 AUDIO
    INDEX 00 11:46:07
    INDEX 01 11:48:07
  TRACK 04 AUDIO
    INDEX 00 22:51:26
    INDEX 01 22:53:26
REM LEADOUT 32:46:45
